# xmcd
#
# Track frame offsets:
#	150
#	22666
#	49542
#	73105
#	96557
#	121206
#	149808
#	172337
#	201432
#
# Disc length: 3065 seconds
#
# Revision: 1
# Processed by: cddbd v1.5.2PL0 Copyright (c) Steve Scherf et al.
# Submitted via: EasyCDDAExtractor 16.0.9.1
#
DISCID=8a0bf709
DTITLE=Various Artist - Euro Heaven Vol.4
DYEAR=2002
DGENRE=Euro-House
TTITLE0=Heartclub - Something Stupid
TTITLE1=DB - The Music's No Good Without You
TTITLE2=TK - Paid My Dues
TTITLE3=TK - I'm Real
TTITLE4=Boyz Boyz - Drowning
TTITLE5=T.H.Express - I'll Be Your Number One (Factory Team Edit)
TTITLE6=Orlando - Don't Want Your Love
TTITLE7=Radiorama - Total Eclipse Of The Heart
TTITLE8=Angelica - Only Time
EXTD=
EXTT0=
EXTT1=
EXTT2=
EXTT3=
EXTT4=
EXTT5=
EXTT6=
EXTT7=
EXTT8=
PLAYORDER=
